<svg xmlns="http://www.w3.org/2000/svg" viewBox="0 0 800 800" role="img" aria-labelledby="title desc">
  <title id="title">Teddy bear stuffed animal</title>
  <desc id="desc">An illustrated brown teddy bear with a scarf on a soft background.</desc>
  <defs>
    <linearGradient id="bg" x1="0" y1="0" x2="1" y2="1">
      <stop offset="0%" stop-color="#f8e8dc"/>
      <stop offset="100%" stop-color="#f5cdb2"/>
    </linearGradient>
  </defs>
  <rect width="800" height="800" rx="48" fill="url(#bg)"/>
  <circle cx="400" cy="430" r="180" fill="#9c6741"/>
  <circle cx="280" cy="255" r="80" fill="#9c6741"/>
  <circle cx="520" cy="255" r="80" fill="#9c6741"/>
  <circle cx="280" cy="255" r="40" fill="#d8af8b"/>
  <circle cx="520" cy="255" r="40" fill="#d8af8b"/>
  <circle cx="400" cy="255" r="155" fill="#a56f47"/>
  <ellipse cx="400" cy="295" rx="70" ry="52" fill="#dfbb97"/>
  <circle cx="345" cy="235" r="14" fill="#2e221b"/>
  <circle cx="455" cy="235" r="14" fill="#2e221b"/>
  <ellipse cx="400" cy="275" rx="18" ry="14" fill="#2e221b"/>
  <path d="M380 294c11 16 29 24 52 0" fill="none" stroke="#2e221b" stroke-width="8" stroke-linecap="round"/>
  <ellipse cx="332" cy="428" rx="38" ry="115" fill="#9c6741" transform="rotate(25 332 428)"/>
  <ellipse cx="468" cy="428" rx="38" ry="115" fill="#9c6741" transform="rotate(-25 468 428)"/>
  <ellipse cx="338" cy="610" rx="58" ry="96" fill="#9c6741" transform="rotate(8 338 610)"/>
  <ellipse cx="462" cy="610" rx="58" ry="96" fill="#9c6741" transform="rotate(-8 462 610)"/>
  <path d="M270 390c50 30 208 30 260 0-18 82-72 137-130 137s-114-55-130-137Z" fill="#a56f47"/>
  <path d="M280 355h240l-24 70H304z" fill="#c34f4f"/>
  <path d="M304 425h192l-24 48H328z" fill="#d96666"/>
</svg>